<svg xmlns="http://www.w3.org/2000/svg" width="7.06mm" height="7.06mm" viewBox="0 0 20 20">
  <title>icon-fullscreen</title>
  <g id="Слой_2" data-name="Слой 2">
    <g id="Layer_1" data-name="Layer 1">
      <g>
        <polygon points="0 0 0 3 0 6 3 6 3 3 6 3 6 0 3 0 0 0" fill="#464646"/>
        <polygon points="3 14 0 14 0 17 0 20 3 20 6 20 6 17 3 17 3 14" fill="#464646"/>
        <polygon points="17 0 14 0 14 3 17 3 17 6 20 6 20 3 20 0 17 0" fill="#464646"/>
        <polygon points="17 17 14 17 14 20 17 20 20 20 20 17 20 14 17 14 17 17" fill="#464646"/>
      </g>
    </g>
  </g>
</svg>
