<svg xmlns="http://www.w3.org/2000/svg" xmlns:xlink="http://www.w3.org/1999/xlink"><symbol id="icon-checkOn" viewBox="0 0 23.05 16.25"><g data-name="&#x421;&#x43B;&#x43E;&#x439; 2"><path d="M22.8 1.3l-1.05-1a.85.85 0 0 0-1.2 0L8.69 12.1 2.5 5.91a.85.85 0 0 0-1.2 0l-1 1a.85.85 0 0 0 0 1.2L8.09 16a.82.82 0 0 0 .6.25.85.85 0 0 0 .61-.25L22.8 2.5a.85.85 0 0 0 0-1.2z" fill="#262424" data-name="Layer 2"/></g></symbol><symbol id="icon-facebook"><g data-name="&#x421;&#x43B;&#x43E;&#x439; 2"><path d="M6.28 3.36h2.39V0H5.79C2.66.18 1.54 2.39 2 6.11H0v3.52h2v9.31h3.8V9.63h2.85V6.11H5.79c-.02-1.04-.04-2.4.49-2.75z" data-name="Layer 1"/></g></symbol><symbol id="icon-fullscreen" viewBox="0 0 20 20"><g data-name="&#x421;&#x43B;&#x43E;&#x439; 2"><path d="M0 0v6h3V3h3V0H0zm3 14H0v6h6v-3H3v-3zM17 0h-3v3h3v3h3V0h-3zm0 17h-3v3h6v-6h-3v3z" fill="#464646" data-name="Layer 1"/></g></symbol><symbol id="icon-gift"><g data-name="&#x421;&#x43B;&#x43E;&#x439; 2"><path d="M60.17 22.23H35.76C49.36 15.42 50.45 11.12 50 8.71c-1.2-3.92-5.66-6.94-9.9-5.34-5.49 2.06-7 10.26-8.52 16.19-1.89-6-3.72-13.65-8-17.53A7.21 7.21 0 0 0 17.9 0c-4 .35-9.65 5.32-7.35 10.85 2.22 5.31 9.54 8.67 14.36 11.35H2.83A2.84 2.84 0 0 0 0 25.07v11.18a2.84 2.84 0 0 0 2.84 2.83h.26v36h57v-36h.11A2.83 2.83 0 0 0 63 36.25V25.07a2.85 2.85 0 0 0-2.83-2.84zM41.77 5.87c2.07-.3 4.9 1.29 5.17 3.17.39 2.73-3.35 5.2-5 6.35-2.48 1.72-4.85 2.61-7.17 4 .86-3.64 2.5-12.85 7-13.52zm-22.54 9.85C17 14.25 12.79 11.34 12.89 8c.11-3.51 5.65-6.45 8.68-3.8 3.8 3.34 5.62 11 7 16.36a68.14 68.14 0 0 1-9.34-4.84zm5.88 56.43H6V39.08h19.11zm0-36.07H3V25.23h22.11zm10 36.07h-7.06V25.23h7.07zm22 0H38.05V39.08h19.08zM60 36.08H38V25.23h22z" data-name="Layer 1"/></g></symbol><symbol id="icon-hamburger"><g data-name="&#x421;&#x43B;&#x43E;&#x439; 2"><g data-name="Layer 1"><path d="M71.91 46H4.25A4.27 4.27 0 0 0 0 50.29v3.46A4.26 4.26 0 0 0 4.25 58h1v1a10 10 0 0 0 9.88 10H61a10 10 0 0 0 10-10v-1h1a4.27 4.27 0 0 0 4.26-4.25v-3.46A4.27 4.27 0 0 0 71.91 46zM68 59a6.94 6.94 0 0 1-7 7H15.13a6.93 6.93 0 0 1-6.92-7v-1H68zm5.21-5.29a1.27 1.27 0 0 1-1.3 1.29H4.25A1.26 1.26 0 0 1 3 53.75v-3.46A1.27 1.27 0 0 1 4.25 49h67.66a1.28 1.28 0 0 1 1.26 1.25zM16.16 37.86l5.48 4 5.47-4 5.48 4 5.48-4 5.48 4 5.48-4 5.48 4 5.47-4 5.49 4 6.37-4.65-1.77-2.42-4.6 3.35-5.49-4-5.47 4-5.48-4-5.48 4-5.48-4-5.48 4-5.48-4-5.47 4-5.48-4-5.47 4-4.6-3.35-1.77 2.42 6.37 4.65 5.47-4zm54.73-6.77v-3C70.24 12.48 55.8 0 38.08 0S5.92 12.48 5.24 28.09v3zM38.08 3c16 0 29.15 11.15 29.84 25.09H8.24C8.93 14.15 22.05 3 38.08 3z"/><circle cx="38.08" cy="15.04" r="2"/><circle cx="30.08" cy="10.08" r="2"/><circle cx="46.08" cy="10.08" r="2"/></g></g></symbol><symbol id="icon-home"><g data-name="&#x421;&#x43B;&#x43E;&#x439; 2"><g data-name="Layer 1"><path d="M29.5 65.34h16V41.41h-16v23.93zm13.07-2.93H32.44V44.34h10.13z"/><path d="M72.62 39.44l2.08-2.08-9.91-9.91V.47H51v13.16L37.35 0 0 37.36l2.08 2.08 7.83-7.83v37.8H6v2.94h63.85v-2.94h-5.06v-37.8zm-18.71-36h7.94v21.1l-7.94-7.94zm7.94 66h-49V28.67l24.5-24.5 24.5 24.5z"/><path d="M29.75 27.21a7.75 7.75 0 1 0 7.75-7.75 7.75 7.75 0 0 0-7.75 7.75zm7.75-5a5 5 0 1 1-5 5 5 5 0 0 1 5-4.97zm-20.59 19.2h3v3.94h-3zm5.94 0h3v3.94h-3zm-5.94 6h3v3.94h-3zm5.94 0h3v3.94h-3zm26-6h3v3.94h-3zm5.93 0h3v3.94h-3zm-5.93 6h3v3.94h-3zm5.93 0h3v3.94h-3z"/></g></g></symbol><symbol id="icon-htmlacademy"><g data-name="&#x421;&#x43B;&#x43E;&#x439; 2"><path d="M78 .59L77.19.5.5 8.54v140.57l76.69 45.63 76.69-45.63V8.54zm65.85 142.82l-66.66 39.66-66.66-39.66V85.79l66.38 39.51.11 7.16-45.54-27.1-.06 7 45.71 27.47.11 7.35L31.54 120l-.06 7 45.71 27.47 46.15-27.61v-7h0V97.1l20.56-12.28zm0-66.06l-18.29 10.74-8.42 5L77 69.17l-.06 7 34.31 20.41-.3.18-.74.43-4.88 2.81L77 83.16l-.06 7 22.36 13.3-5.3 3.48-.12.07L77 97.06l-.06 7L88 110.54l-11.29 6.78-66-39.26 66.11-39.75h0zm0-7l-67-39.51h0L10.53 70.31V17.58l66.66-7 66.66 7z" stroke="#231f20" stroke-miterlimit="10" data-name="Layer 1"/></g></symbol><symbol id="icon-like"><g data-name="&#x421;&#x43B;&#x43E;&#x439; 2"><path d="M12.38 3.65l-.63 2.93L11.22 9h8.68v2.06L17 18H8V8l4.37-4.36M13.2 0L6.6 6.6A1.68 1.68 0 0 0 6 8v10a2 2 0 0 0 2 2h9a2 2 0 0 0 1.8-1.2l3-7.1a1.7 1.7 0 0 0 .1-.7V9h.1a2 2 0 0 0-2-2h-6.3l1-4.6v-.3a2.1 2.1 0 0 0-.4-1.1l-1.1-1zM4 8H0v12h4V8zm18 1z" fill="#fff" data-name="Layer 1"/></g></symbol><symbol id="icon-mail"><g data-name="&#x421;&#x43B;&#x43E;&#x439; 2"><path d="M8 8a2.22 2.22 0 0 1-1-.34L0 4v7a1 1 0 0 0 1 1h14a1 1 0 0 0 1-1V4L9 7.66A2.22 2.22 0 0 1 8 8zm7-8H1a1 1 0 0 0-1 1v.76L8 6l8-4.2V1a1 1 0 0 0-1-1z" data-name="Layer 1"/></g></symbol><symbol id="icon-phone"><g data-name="&#x421;&#x43B;&#x43E;&#x439; 2"><path d="M3.6 7.8a15.57 15.57 0 0 0 6.6 6.6l2.2-2.2a.8.8 0 0 1 1-.2 10.46 10.46 0 0 0 3.6.6.94.94 0 0 1 1 1V17a.94.94 0 0 1-1 1A17 17 0 0 1 0 1a.94.94 0 0 1 1-1h3.5a.94.94 0 0 1 1 1 11.33 11.33 0 0 0 .6 3.6 1.23 1.23 0 0 1-.2 1L3.6 7.8z" fill="#010101" data-name="Layer 1"/></g></symbol><symbol id="icon-replay" viewBox="0 0 16 20"><g data-name="&#x421;&#x43B;&#x43E;&#x439; 2"><path d="M8 4V0L3 5l5 5V6a6 6 0 1 1-6 6H0a8 8 0 1 0 8-8z" fill="#262424" data-name="Layer 1"/></g></symbol><symbol id="icon-subtitle" viewBox="0 0 32 20"><g data-name="&#x421;&#x43B;&#x43E;&#x439; 2"><path d="M29 0H3a3 3 0 0 0-3 3v14a3 3 0 0 0 3 3h26a3 3 0 0 0 3-3V3a3 3 0 0 0-3-3zM14.4 15.85a8.37 8.37 0 0 1-1.67.17 6.13 6.13 0 0 1-2-.32 4.38 4.38 0 0 1-1.65-1A5.18 5.18 0 0 1 8 12.79 8.19 8.19 0 0 1 7.55 10 7.62 7.62 0 0 1 8 7.15 5.12 5.12 0 0 1 9.25 5.3a4.46 4.46 0 0 1 1.67-1 5.76 5.76 0 0 1 1.86-.3 8.68 8.68 0 0 1 1.67.14 5.74 5.74 0 0 1 1.14.31l-.45 1.92a3.54 3.54 0 0 0-.9-.27A9 9 0 0 0 13 6a2.75 2.75 0 0 0-2.2 1 4.57 4.57 0 0 0-.84 3 6.33 6.33 0 0 0 .2 1.63 3.51 3.51 0 0 0 .6 1.26 2.75 2.75 0 0 0 1 .81 3.24 3.24 0 0 0 1.4.29 4.63 4.63 0 0 0 1.26-.15 3.62 3.62 0 0 0 .89-.38l.46 1.84a3.33 3.33 0 0 1-1.37.55zm8.7 0a8.4 8.4 0 0 1-1.68.17 6.12 6.12 0 0 1-2-.32 4.31 4.31 0 0 1-1.65-1 5.18 5.18 0 0 1-1.13-1.86 8.19 8.19 0 0 1-.39-2.84 7.62 7.62 0 0 1 .47-2.85 5.1 5.1 0 0 1 1.22-1.85 4.42 4.42 0 0 1 1.68-1 5.7 5.7 0 0 1 1.85-.3 8.87 8.87 0 0 1 1.68.14 5.44 5.44 0 0 1 1.13.31l-.44 1.92a3.62 3.62 0 0 0-.91-.27 8.78 8.78 0 0 0-1.26-.1 2.77 2.77 0 0 0-2.21 1 4.63 4.63 0 0 0-.83 3 6.33 6.33 0 0 0 .2 1.63 3.51 3.51 0 0 0 .6 1.26 2.75 2.75 0 0 0 1 .81 3.23 3.23 0 0 0 1.39.29 4.53 4.53 0 0 0 1.26-.15 3.69 3.69 0 0 0 .9-.38l.46 1.84a3.33 3.33 0 0 1-1.34.55z" fill="#464646" data-name="Layer 1"/></g></symbol><symbol id="icon-twitter"><g data-name="&#x421;&#x43B;&#x43E;&#x439; 2"><path d="M11.28.15A3.31 3.31 0 0 1 15 1.3c.69-.22 1.37-.47 2.07-.69a2.27 2.27 0 0 1-.88 1.73 1.62 1.62 0 0 0 1.34-.48 2.89 2.89 0 0 1-1.61 2c-.24 6.59-3.27 11-10.38 10.82h-.49c-.42 0-4.29-.45-5-1.84a6.64 6.64 0 0 0 4.84-1.15c-1-.3-2.77-.47-3.07-2.88A2.13 2.13 0 0 0 3 8.9C1.76 8.07.38 7.37.46 5.22a2 2 0 0 0 1.38.46C1.12 5.44-.19 2.4.92.84c1.87 1.81 3.85 3.52 7.37 3.69C8.51 2.29 9.46.79 11.28.15z" data-name="Layer 1"/></g></symbol><symbol id="icon-youtube"><g data-name="&#x421;&#x43B;&#x43E;&#x439; 2"><path d="M17.14 0H2.83A2.84 2.84 0 0 0 0 2.83v8.35A2.84 2.84 0 0 0 2.83 14h14.31A2.84 2.84 0 0 0 20 11.18V2.83A2.85 2.85 0 0 0 17.14 0zM7 10.39V3.62L13.8 7z" data-name="Layer 1"/></g></symbol></svg>